<svg id="visual" viewBox="0 0 960 540" width="960" height="540" xmlns="http://www.w3.org/2000/svg" xmlns:xlink="http://www.w3.org/1999/xlink" version="1.1"><rect x="0" y="0" width="960" height="540" fill="#001220"></rect><defs><linearGradient id="grad1_0" x1="43.8%" y1="100%" x2="100%" y2="0%"><stop offset="14.444444444444446%" stop-color="#fbae3c" stop-opacity="1"></stop><stop offset="85.55555555555554%" stop-color="#fbae3c" stop-opacity="1"></stop></linearGradient></defs><defs><linearGradient id="grad1_1" x1="43.8%" y1="100%" x2="100%" y2="0%"><stop offset="14.444444444444446%" stop-color="#fbae3c" stop-opacity="1"></stop><stop offset="85.55555555555554%" stop-color="#f48350" stop-opacity="1"></stop></linearGradient></defs><defs><linearGradient id="grad1_2" x1="43.8%" y1="100%" x2="100%" y2="0%"><stop offset="14.444444444444446%" stop-color="#d96162" stop-opacity="1"></stop><stop offset="85.55555555555554%" stop-color="#f48350" stop-opacity="1"></stop></linearGradient></defs><defs><linearGradient id="grad1_3" x1="43.8%" y1="100%" x2="100%" y2="0%"><stop offset="14.444444444444446%" stop-color="#d96162" stop-opacity="1"></stop><stop offset="85.55555555555554%" stop-color="#af4b6d" stop-opacity="1"></stop></linearGradient></defs><defs><linearGradient id="grad1_4" x1="43.8%" y1="100%" x2="100%" y2="0%"><stop offset="14.444444444444446%" stop-color="#7c3e6b" stop-opacity="1"></stop><stop offset="85.55555555555554%" stop-color="#af4b6d" stop-opacity="1"></stop></linearGradient></defs><defs><linearGradient id="grad1_5" x1="43.8%" y1="100%" x2="100%" y2="0%"><stop offset="14.444444444444446%" stop-color="#7c3e6b" stop-opacity="1"></stop><stop offset="85.55555555555554%" stop-color="#49335c" stop-opacity="1"></stop></linearGradient></defs><defs><linearGradient id="grad1_6" x1="43.8%" y1="100%" x2="100%" y2="0%"><stop offset="14.444444444444446%" stop-color="#1d2540" stop-opacity="1"></stop><stop offset="85.55555555555554%" stop-color="#49335c" stop-opacity="1"></stop></linearGradient></defs><defs><linearGradient id="grad1_7" x1="43.8%" y1="100%" x2="100%" y2="0%"><stop offset="14.444444444444446%" stop-color="#1d2540" stop-opacity="1"></stop><stop offset="85.55555555555554%" stop-color="#001220" stop-opacity="1"></stop></linearGradient></defs><defs><linearGradient id="grad2_0" x1="0%" y1="100%" x2="56.3%" y2="0%"><stop offset="14.444444444444446%" stop-color="#fbae3c" stop-opacity="1"></stop><stop offset="85.55555555555554%" stop-color="#fbae3c" stop-opacity="1"></stop></linearGradient></defs><defs><linearGradient id="grad2_1" x1="0%" y1="100%" x2="56.3%" y2="0%"><stop offset="14.444444444444446%" stop-color="#f48350" stop-opacity="1"></stop><stop offset="85.55555555555554%" stop-color="#fbae3c" stop-opacity="1"></stop></linearGradient></defs><defs><linearGradient id="grad2_2" x1="0%" y1="100%" x2="56.3%" y2="0%"><stop offset="14.444444444444446%" stop-color="#f48350" stop-opacity="1"></stop><stop offset="85.55555555555554%" stop-color="#d96162" stop-opacity="1"></stop></linearGradient></defs><defs><linearGradient id="grad2_3" x1="0%" y1="100%" x2="56.3%" y2="0%"><stop offset="14.444444444444446%" stop-color="#af4b6d" stop-opacity="1"></stop><stop offset="85.55555555555554%" stop-color="#d96162" stop-opacity="1"></stop></linearGradient></defs><defs><linearGradient id="grad2_4" x1="0%" y1="100%" x2="56.3%" y2="0%"><stop offset="14.444444444444446%" stop-color="#af4b6d" stop-opacity="1"></stop><stop offset="85.55555555555554%" stop-color="#7c3e6b" stop-opacity="1"></stop></linearGradient></defs><defs><linearGradient id="grad2_5" x1="0%" y1="100%" x2="56.3%" y2="0%"><stop offset="14.444444444444446%" stop-color="#49335c" stop-opacity="1"></stop><stop offset="85.55555555555554%" stop-color="#7c3e6b" stop-opacity="1"></stop></linearGradient></defs><defs><linearGradient id="grad2_6" x1="0%" y1="100%" x2="56.3%" y2="0%"><stop offset="14.444444444444446%" stop-color="#49335c" stop-opacity="1"></stop><stop offset="85.55555555555554%" stop-color="#1d2540" stop-opacity="1"></stop></linearGradient></defs><defs><linearGradient id="grad2_7" x1="0%" y1="100%" x2="56.3%" y2="0%"><stop offset="14.444444444444446%" stop-color="#001220" stop-opacity="1"></stop><stop offset="85.55555555555554%" stop-color="#1d2540" stop-opacity="1"></stop></linearGradient></defs><g transform="translate(960, 540)"><path d="M-351 0C-346.8 -46.7 -342.7 -93.4 -324.3 -134.3C-305.9 -175.3 -273.3 -210.5 -238.3 -238.3C-203.3 -266.1 -166 -286.4 -125.9 -304C-85.8 -321.5 -42.9 -336.2 0 -351L0 0Z" fill="#0c1c30"></path><path d="M-307.1 0C-303.5 -40.8 -299.8 -81.7 -283.7 -117.5C-267.7 -153.4 -239.1 -184.2 -208.5 -208.5C-177.9 -232.8 -145.3 -250.6 -110.2 -266C-75.1 -281.3 -37.5 -294.2 0 -307.1L0 0Z" fill="#312c4f"></path><path d="M-263.2 0C-260.1 -35 -257 -70 -243.2 -100.7C-229.4 -131.5 -204.9 -157.9 -178.7 -178.7C-152.5 -199.6 -124.5 -214.8 -94.4 -228C-64.3 -241.1 -32.2 -252.2 0 -263.2L0 0Z" fill="#623965"></path><path d="M-219.4 0C-216.8 -29.2 -214.2 -58.4 -202.7 -84C-191.2 -109.5 -170.8 -131.6 -148.9 -148.9C-127.1 -166.3 -103.8 -179 -78.7 -190C-53.6 -200.9 -26.8 -210.2 0 -219.4L0 0Z" fill="#96446e"></path><path d="M-175.5 0C-173.4 -23.3 -171.3 -46.7 -162.1 -67.2C-152.9 -87.6 -136.6 -105.3 -119.1 -119.1C-101.7 -133 -83 -143.2 -63 -152C-42.9 -160.7 -21.4 -168.1 0 -175.5L0 0Z" fill="#c55469"></path><path d="M-131.6 0C-130.1 -17.5 -128.5 -35 -121.6 -50.4C-114.7 -65.7 -102.5 -78.9 -89.4 -89.4C-76.2 -99.8 -62.3 -107.4 -47.2 -114C-32.2 -120.6 -16.1 -126.1 0 -131.6L0 0Z" fill="#e9705a"></path><path d="M-87.7 0C-86.7 -11.7 -85.7 -23.3 -81.1 -33.6C-76.5 -43.8 -68.3 -52.6 -59.6 -59.6C-50.8 -66.5 -41.5 -71.6 -31.5 -76C-21.4 -80.4 -10.7 -84.1 0 -87.7L0 0Z" fill="#fa9845"></path><path d="M-43.9 0C-43.4 -5.8 -42.8 -11.7 -40.5 -16.8C-38.2 -21.9 -34.2 -26.3 -29.8 -29.8C-25.4 -33.3 -20.8 -35.8 -15.7 -38C-10.7 -40.2 -5.4 -42 0 -43.9L0 0Z" fill="#fbae3c"></path></g><g transform="translate(0, 0)"><path d="M351 0C341.3 45 331.6 90.1 313.2 129.7C294.8 169.4 267.7 203.6 237.6 237.6C207.5 271.6 174.4 305.4 134.3 324.3C94.2 343.2 47.1 347.1 0 351L0 0Z" fill="#0c1c30"></path><path d="M307.1 0C298.6 39.4 290.1 78.8 274 113.5C257.9 148.2 234.2 178.1 207.9 207.9C181.6 237.7 152.6 267.2 117.5 283.7C82.4 300.3 41.2 303.7 0 307.1L0 0Z" fill="#312c4f"></path><path d="M263.3 0C256 33.8 248.7 67.6 234.9 97.3C221.1 127 200.8 152.7 178.2 178.2C155.6 203.7 130.8 229.1 100.7 243.2C70.7 257.4 35.3 260.3 0 263.3L0 0Z" fill="#623965"></path><path d="M219.4 0C213.3 28.2 207.2 56.3 195.7 81.1C184.2 105.9 167.3 127.2 148.5 148.5C129.7 169.8 109 190.9 84 202.7C58.9 214.5 29.4 216.9 0 219.4L0 0Z" fill="#96446e"></path><path d="M175.5 0C170.6 22.5 165.8 45 156.6 64.9C147.4 84.7 133.8 101.8 118.8 118.8C103.7 135.8 87.2 152.7 67.2 162.1C47.1 171.6 23.6 173.5 0 175.5L0 0Z" fill="#c55469"></path><path d="M131.6 0C128 16.9 124.3 33.8 117.4 48.6C110.5 63.5 100.4 76.3 89.1 89.1C77.8 101.9 65.4 114.5 50.4 121.6C35.3 128.7 17.7 130.2 0 131.6L0 0Z" fill="#e9705a"></path><path d="M87.8 0C85.3 11.3 82.9 22.5 78.3 32.4C73.7 42.3 66.9 50.9 59.4 59.4C51.9 67.9 43.6 76.4 33.6 81.1C23.6 85.8 11.8 86.8 0 87.8L0 0Z" fill="#fa9845"></path><path d="M43.9 0C42.7 5.6 41.4 11.3 39.1 16.2C36.8 21.2 33.5 25.4 29.7 29.7C25.9 34 21.8 38.2 16.8 40.5C11.8 42.9 5.9 43.4 0 43.9L0 0Z" fill="#fbae3c"></path></g></svg>